# xmcd
#
# Track frame offsets:
#	150
#	19662
#	35372
#	50695
#	70065
#	89097
#	107589
#	124776
#	144288
#	164175
#	183687
#	199397
#	214720
#	234090
#	253122
#	271614
#	288801
#	308313
#
# Disc length: 4376 seconds
#
# Revision: 1
# Processed by: cddbd v1.5.2PL0 Copyright (c) Steve Scherf et al.
# Submitted via: audiograbber 1.83.01
#
DISCID=fe111612
DTITLE=Various Artist - Pop Hits Monthly 0409-P
DYEAR=2004
DGENRE=karaoke
TTITLE0=Angels - Jessica Simpson
TTITLE1=Vindicated - Dashboard Confessional
TTITLE2=Turn Me On - Kevin Lyttle
TTITLE3=My Happy Ending - Avril Lavigne
TTITLE4=Last Thing On My Mind - LeAnn Rimes/Ronan Keating
TTITLE5=Let's Get It Started - Black Eyed Peas
TTITLE6=Raindrops Will Fall - Tamyra Gray
TTITLE7=All She Wrote - Default
TTITLE8=I Believe - Fantasia
TTITLE9=Angels - Jessica Simpson (vocal)
TTITLE10=Vindicated - Dashboard Confessional (vocal)
TTITLE11=Turn Me On - Kevin Lytle (vocal)
TTITLE12=My Happy Ending - Avril Lavigne (vocal)
TTITLE13=Last Thing On My Mind - LeAnn Rimes/Ronan Keating (vocal)
TTITLE14=Let's Get It Started - Black Eyed Peas (vocal)
TTITLE15=Raindrops Will Fall - Tamyra Gray (vocal)
TTITLE16=All She Wrote - Default (vocl)
TTITLE17=I Believe - Fantasia (vocal)
EXTD=
EXTT0=
EXTT1=
EXTT2=
EXTT3=
EXTT4=
EXTT5=
EXTT6=
EXTT7=
EXTT8=
EXTT9=
EXTT10=
EXTT11=
EXTT12=
EXTT13=
EXTT14=
EXTT15=
EXTT16=
EXTT17=
PLAYORDER=
